<svg enable-background="new 0 0 80 40" viewBox="0 0 80 40" xmlns="http://www.w3.org/2000/svg"><g fill="#467366"><path d="m25.3 20.7c-6.7-1.8-14.2-.1-19.4 5.2-3.9 3.9-5.9 9-5.9 14.1h2c0-4.6 1.8-9.2 5.3-12.7.5-.5 1-.9 1.5-1.3v9.8l-4.3 4.2h2.8l16.5-16.4c.7 5.4-1 11-5.2 15.1-.5.5-1 .9-1.5 1.3h3c5.3-5.3 7-12.7 5.2-19.3zm-14.5 13v-9.2c3.5-2.1 7.6-2.9 11.6-2.4z"/><path d="m65.3.7c-6.7-1.7-14.1 0-19.4 5.2-5.2 5.2-7 12.6-5.2 19.3 6.7 1.8 14.1.1 19.3-5.2 5.3-5.2 7-12.6 5.3-19.3zm-14.5 3.9c3.5-2.1 7.6-2.9 11.6-2.4l-11.6 11.6zm-3.5 2.7c.5-.5 1-.9 1.5-1.3v9.7l-6.6 6.6c-.7-5.3 1-10.9 5.1-15zm11.4 11.4c-4.1 4.1-9.7 5.8-15 5.1l20.1-20.2c.7 5.4-1 11-5.1 15.1z"/><path d="m17.2 0c-3.9 3.1-8.9 4.4-13.6 3.8l3.8-3.8h-2.8l-2.4 2.4c-.1-.8-.1-1.6-.1-2.4h-2c0 1.8.2 3.5.7 5.3 6.6 1.7 14 0 19.3-5.2 0 0 0 0 .1-.1z"/></g></svg>